<svg id="Layer_1" data-name="Layer 1" xmlns="http://www.w3.org/2000/svg" viewBox="0 0 397.13 397.17"><defs><style>.cls-1{fill:#494949;}</style></defs><path class="cls-1" d="M396.23,107.4C287.3,106.91,198,196,197.42,305.74,196.88,414.64,286,504,395.74,504.57c108.85.59,198.28-88.63,198.81-198.34C595.08,197.32,505.89,107.89,396.23,107.4ZM377.9,209.05c0-11.91,7.68-20.08,18.7-20.11,10.79,0,18.77,8,18.81,19.55q.18,48.4,0,96.82c0,10.28-6.69,17.67-16.25,18.95a18.52,18.52,0,0,1-20.57-13.48,26.43,26.43,0,0,1-.67-6.9c-.05-15.8,0-31.61,0-47.41S377.85,224.86,377.9,209.05Zm39.34,223.73a151.73,151.73,0,0,1-21.39,1.75c-63.13-.21-117.29-46.27-126.47-108.68-6.14-41.72,5.69-78.33,34.91-109,7.95-8.37,19.32-9,27.19-1.73s8.15,19.18.11,27.62c-19,19.89-27.62,43.44-25.71,70.89,2.76,39.76,33.41,74.18,72.61,81.45,51.79,9.61,100.11-24.66,107.12-76.69,3.84-28.5-4.49-53.66-24.37-74.67-4.08-4.31-6.9-9-6.68-15,.29-8.09,4.19-14,11.67-17.06,7.94-3.25,15.06-1.33,21,4.68a125.63,125.63,0,0,1,32.53,56.39C539.45,345.81,491.82,420.13,417.24,432.78Z" transform="translate(-197.42 -107.4)"/><path class="cls-1" d="M396.23,107.4C287.3,106.91,198,196,197.42,305.74,196.88,414.64,286,504,395.74,504.57c108.85.59,198.28-88.63,198.81-198.34C595.08,197.32,505.89,107.89,396.23,107.4ZM377.9,209.05c0-11.91,7.68-20.08,18.7-20.11,10.79,0,18.77,8,18.81,19.55q.18,48.4,0,96.82c0,10.28-6.69,17.67-16.25,18.95a18.52,18.52,0,0,1-20.57-13.48,26.43,26.43,0,0,1-.67-6.9c-.05-15.8,0-31.61,0-47.41S377.85,224.86,377.9,209.05Zm39.34,223.73a151.73,151.73,0,0,1-21.39,1.75c-63.13-.21-117.29-46.27-126.47-108.68-6.14-41.72,5.69-78.33,34.91-109,7.95-8.37,19.32-9,27.19-1.73s8.15,19.18.11,27.62c-19,19.89-27.62,43.44-25.71,70.89,2.76,39.76,33.41,74.18,72.61,81.45,51.79,9.61,100.11-24.66,107.12-76.69,3.84-28.5-4.49-53.66-24.37-74.67-4.08-4.31-6.9-9-6.68-15,.29-8.09,4.19-14,11.67-17.06,7.94-3.25,15.06-1.33,21,4.68a125.63,125.63,0,0,1,32.53,56.39C539.45,345.81,491.82,420.13,417.24,432.78Z" transform="translate(-197.42 -107.4)"/></svg>