<svg id="Layer_1" data-name="Layer 1" xmlns="http://www.w3.org/2000/svg" viewBox="0 0 511.8 511.81"><defs><style>.cls-1{fill:#494949;}.cls-2{fill:#242424;}</style></defs><path class="cls-1" d="M651.9,286c-.94-5.22-.53-10.56-1.23-15.78a244.55,244.55,0,0,0-16.4-61.11A258.08,258.08,0,0,0,440.66,52.67c-8.52-1.55-17.14-1.42-25.67-2.57H405a7.62,7.62,0,0,1-6,0h-6a7.62,7.62,0,0,1-6,0H377c-5.56.9-11.23.48-16.78,1.22-33,4.38-63.72,15.32-92.5,31.8A257.94,257.94,0,0,0,142.67,261.34c-1.38,7.86-1.36,15.82-2.57,23.67v6c.75.79.5,1.74.48,2.66a1.62,1.62,0,0,0,0,.31.61.61,0,0,0,0,.19c-.19,1.27.46,2.66-.51,3.83v16c.86.88.38,2,.51,3v0a1.51,1.51,0,0,0,0,.3c0,.91.28,1.89-.49,2.67v7c.92,4.73.54,9.56,1.16,14.29a245.62,245.62,0,0,0,16.67,62.07,257.95,257.95,0,0,0,193.41,156c7.85,1.41,15.82,1.38,23.67,2.58h6c.78-.75,1.73-.5,2.64-.48a1.94,1.94,0,0,0,.34,0h.18c1.27.19,2.66-.46,3.83.51h16c.88-.86,2-.38,3-.51h0a1.83,1.83,0,0,0,.33,0c.91,0,1.86-.27,2.64.49h5c5.56-.9,11.23-.48,16.78-1.22,33-4.38,63.72-15.32,92.5-31.79A258,258,0,0,0,649.33,350.66c1.38-7.86,1.36-15.82,2.57-23.67v-7c-.77-.79-.47-1.76-.49-2.68a1.42,1.42,0,0,0,0-.29v0c.13-1-.35-2.12.51-3V298c-1-1.17-.32-2.56-.51-3.83a.61.61,0,0,0,0-.19,1.62,1.62,0,0,0,0-.31c0-.92-.27-1.87.48-2.66ZM413.23,127.39c-22.81-3.41-45.14-1.29-66.36,8.35s-33.52,26.59-38.75,48.91c-6.17,26.31-2.48,52.28,3.41,78.08,1.06,4.64,2.19,8.68-2.28,12.42-2.7,2.26-3.57,6.05-3.75,9.56-.54,10.72,1.58,20.84,7.8,29.8,1.1,1.59,2.68,3.5,4.38,3.93,5.38,1.35,6,5.29,7.09,9.82,3.75,15.47,9.24,30.21,21.16,41.56a3.67,3.67,0,0,1,1.06,3.12c-.09,10.66-.43,21.32-.24,32,.21,12.13-6.32,20.21-15.26,27-10.85,8.27-23.49,13-35.9,18.16-16.4,6.81-33.18,12.75-48.61,21.71-1.15.67-2.32,1.31-3.44,2-7.84,4.92-7.89,5-14.31-1.63-43.08-44.37-66.26-97.3-68.4-159.26-.08-2.33,0-4.66,0-7-.08-108,73.59-202.41,177.75-228.22C456,48.6,575,111.56,617.09,225.07c32.06,86.53,8.79,187.77-57.32,250.16-3.09,2.91-4.94,2.89-8.28.61C536,465.26,518.41,459,501.23,451.9c-13.79-5.7-28-10.69-40-19.85-9.61-7.27-16.11-16-15.44-29,.5-9.63-.07-19.31-.12-29,0-1.61-.14-3.14,1.28-4.57,12.21-12.29,17.57-27.9,20.95-44.36.59-2.88,1.23-4.6,4.4-5.63,4.86-1.57,7.55-5.81,9.64-10.27A55.28,55.28,0,0,0,486.73,289c.4-6-1.19-11.75-5.58-16-2.31-2.23-2-4-1.3-6.52,6.11-20.87,10.19-42.07,8.94-63.93-.9-15.85-4.4-30.87-15.46-43.24-7.58-8.48-17.24-12.73-28-15-1.6-.34-3.25-.24-4.39-1.88C434.24,132.75,424.05,129,413.23,127.39Z" transform="translate(-140.1 -50.1)"/><path class="cls-1" d="M651.9,286c-2.17-5.23-1.7-10.89-2.61-16.33q-23.47-139.52-152-198.57c-25.27-11.62-52.13-17.81-79.87-20-.89-.07-2.07.42-2.45-1,8.53,1.15,17.15,1,25.67,2.57A258.08,258.08,0,0,1,634.27,209.12a244.55,244.55,0,0,1,16.4,61.11C651.37,275.45,651,280.79,651.9,286Z" transform="translate(-140.1 -50.1)"/><path class="cls-1" d="M377,50.1c-5.62,2-11.6,1.65-17.38,2.62Q219.85,76.27,160.9,205.17c-11.1,24.2-16.94,50-19.71,76.4-.12,1.17.69,2.76-1.09,3.44,1.21-7.85,1.19-15.81,2.57-23.67A257.94,257.94,0,0,1,267.73,83.12c28.78-16.48,59.54-27.42,92.5-31.8C365.78,50.58,371.45,51,377,50.1Z" transform="translate(-140.1 -50.1)"/><path class="cls-1" d="M651.9,327c-1.21,7.85-1.19,15.81-2.57,23.67A258,258,0,0,1,524.27,528.89c-28.78,16.47-59.54,27.41-92.5,31.79-5.55.74-11.22.32-16.78,1.22,3.37-2.17,7.29-1.31,10.9-1.74a256.08,256.08,0,0,0,220-198.71,266.11,266.11,0,0,0,5-32C650.93,328.53,650.52,327.35,651.9,327Z" transform="translate(-140.1 -50.1)"/><path class="cls-1" d="M375,561.9c-7.85-1.2-15.82-1.17-23.67-2.58a257.95,257.95,0,0,1-193.41-156,245.62,245.62,0,0,1-16.67-62.07c-.62-4.73-.24-9.56-1.16-14.29,2.2,4.88,1.75,10.22,2.61,15.32q23.46,139.53,152,198.59C319,552.12,344.94,558,371.57,560.81,372.74,560.94,374.32,560.12,375,561.9Z" transform="translate(-140.1 -50.1)"/><path class="cls-2" d="M393,50.1c-2,1.42-4,1.62-6,0Z" transform="translate(-140.1 -50.1)"/><path class="cls-2" d="M405,50.1c-2,1.62-4,1.42-6,0Z" transform="translate(-140.1 -50.1)"/><path class="cls-1" d="M141,294c0,1.42.63,3-.88,4.05v-4C140.37,293.58,140.66,293.54,141,294Z" transform="translate(-140.1 -50.1)"/><path class="cls-1" d="M651.9,298c-1.51-1.08-.92-2.63-.88-4.05.32-.4.61-.38.88.06Z" transform="translate(-140.1 -50.1)"/><path class="cls-1" d="M384,561c1.42,0,3-.63,4.05.88h-4c-.31-.17-.42-.36-.33-.56S383.85,561,384,561Z" transform="translate(-140.1 -50.1)"/><path class="cls-1" d="M141,294c-.29,0-.59.05-.88.06v-3C141.7,291.6,140.92,292.9,141,294Z" transform="translate(-140.1 -50.1)"/><path class="cls-1" d="M651.9,294c-.29,0-.59,0-.88-.06.06-1.05-.72-2.35.88-2.94Z" transform="translate(-140.1 -50.1)"/><path class="cls-1" d="M140.1,314c1.25.74,1,1.92.85,3.05-.31.4-.59.38-.85-.05Z" transform="translate(-140.1 -50.1)"/><path class="cls-1" d="M651.05,317.05c-.13-1.13-.4-2.31.85-3.05v3C651.64,317.44,651.36,317.43,651.05,317.05Z" transform="translate(-140.1 -50.1)"/><path class="cls-1" d="M140.1,317l.85.05c0,1.07.6,2.3-.85,2.95Z" transform="translate(-140.1 -50.1)"/><path class="cls-1" d="M651.05,317.05l.85-.05v3C650.45,319.35,651,318.12,651.05,317.05Z" transform="translate(-140.1 -50.1)"/><path class="cls-1" d="M384,561a5.26,5.26,0,0,1,.05.88h-3C381.6,560.31,382.9,561.08,384,561Z" transform="translate(-140.1 -50.1)"/><path class="cls-1" d="M404,561.9c.74-1.25,1.92-1,3.05-.85.28.21.37.4.26.59s-.21.26-.31.26Z" transform="translate(-140.1 -50.1)"/><path class="cls-1" d="M407,561.9a8.08,8.08,0,0,1,.05-.85c1.06,0,2.3-.59,2.94.85Z" transform="translate(-140.1 -50.1)"/></svg>