<?xml version="1.0" encoding="utf-8"?>
<!-- Generator: Adobe Illustrator 25.0.1, SVG Export Plug-In . SVG Version: 6.00 Build 0)  -->
<svg version="1.1" id="Capa_1" xmlns="http://www.w3.org/2000/svg" xmlns:xlink="http://www.w3.org/1999/xlink" x="0px" y="0px"
	 viewBox="0 0 910.3 910.3" style="enable-background:new 0 0 910.3 910.3;" xml:space="preserve">
<style type="text/css">
	.st0{fill:#797979;}
</style>
<g>
	<g>
		<path class="st0" d="M873.2,202.1l-1.2-28.5l-28.4-2.9c-109-11.2-202.8-51.9-262.2-84C516.3,51.4,476.8,18.3,476.5,18L455.2,0
			l-21.3,18c-0.4,0.3-39.9,33.4-105,68.6c-59.4,32.2-153.2,72.9-262.2,84l-28.4,2.9l-1.2,28.5c-0.2,5.1-4.8,126.7,42.1,273.9
			c27.6,86.9,67.5,164.7,118.6,231.4c64.1,83.7,145.9,149.7,243.2,196.1l14.2,6.8l14.2-6.8c97.2-46.4,179-112.4,243.2-196.1
			c51.1-66.7,91-144.5,118.6-231.4C878,328.8,873.4,207.2,873.2,202.1z M455.1,836.9C374,795.7,305.4,739,250.9,668.3
			c-46.4-60.3-82.8-131-108.2-210.2c-31.1-96.8-38.1-183.1-39.5-225.5c43.7-6.5,87.9-17.4,131.8-32.6
			c42.9-14.8,85.6-33.8,126.9-56.2c41.9-22.8,73.8-44.6,93.2-58.8c19.4,14.2,51.3,36,93.2,58.8c41.3,22.5,84,41.4,126.9,56.2
			c43.9,15.2,88.1,26.1,131.9,32.6c-1.4,42-8.2,127.1-38.8,223.4c-25.3,79.6-61.7,150.7-108.1,211.3
			C605.5,738.5,536.6,795.5,455.1,836.9z"/>
		<polygon class="st0" points="635,305 589,351.1 417.4,522.7 330.4,435.7 318.6,423.9 295.2,447.2 295.2,447.2 271.9,470.5 
			417.4,616 681.7,351.7 		"/>
	</g>
</g>
</svg>
